# xmcd
#
# Track frame offsets:
#	150
#	15421
#	24893
#	39794
#	54989
#	68263
#	86627
#	99261
#	112318
#	127337
#
# Disc length: 1900 seconds
#
# Revision: 1
# Processed by: cddbd v1.5.2PL0 Copyright (c) Steve Scherf et al.
# Submitted via: EasyCDDAExtractor 5.0.6
#
DISCID=70076a0a
DTITLE=Billy Eckstine - The Cool Mr. B
DYEAR=1900
DGENRE=Blues
TTITLE0=I Love You
TTITLE1=Blowin The Blues Away
TTITLE2=Dont Blame Me
TTITLE3=If That's The Way That You Feel
TTITLE4=I Want To Talk About You
TTITLE5=Without A Song
TTITLE6=A Cottage For Sale
TTITLE7=Prisoner Of Love
TTITLE8=Mean To Me
TTITLE9=The Night Has A Thousand Eyes
EXTD=
EXTT0=
EXTT1=
EXTT2=
EXTT3=
EXTT4=
EXTT5=
EXTT6=
EXTT7=
EXTT8=
EXTT9=
PLAYORDER=
